# xmcd
#
# Track frame offsets:
#	150
#	12714
#	23657
#	48268
#	60798
#	72476
#	85072
#	95670
#	109719
#	124468
#	135992
#	164991
#	182423
#	198146
#	214595
#	238906
#	252731
#	264129
#	274805
#	285311
#	296502
#	303396
#	311033
#	320199
#	327973
#	337452
#
# Disc length: 4627 seconds
# Revision: 1
# Processed by: cddbd v1.5.2PL0 Copyright (c) Steve Scherf et al.
# Submitted via: dBpowerAMP V12.0
#
DISCID=8f12111a
DTITLE=Various Artist - The Road To Robert Johnson And Beyond, Disc D
DYEAR=2007
DGENRE=Blues
TTITLE0=Elmore James - Dust My Broom
TTITLE1=Homesick James Williamson - Long Lonesome Day
TTITLE2=Leroy Foster - Rollin' and Tumblin', Pts. 1 and 2
TTITLE3=Homesick James Williamson - Johnnie Mae
TTITLE4=Baby Boy Warren - Stop Breaking My Heart
TTITLE5=Elmore James - Standing at the Crossroads
TTITLE6=Homesick James Williamson - Lonesome Blues
TTITLE7=Homesick James Williamson - Homesick
TTITLE8=Elmore James - I Believe
TTITLE9=Johnny Shines - Rambling Blues
TTITLE10=Johnny Shines - Maggie Lee Blues
TTITLE11=Johnny Shines - You're the One That I Love
TTITLE12=Johnny Shines - Sweet Home Chicago
TTITLE13=Johnny Shines - Shake 'Em on Down
TTITLE14=Johnny Shines - Moanin' and Groanin' the Blues
TTITLE15=Blind Will Dukes - Terraplane Blues
TTITLE16=Blind Will Dukes - Dead Shrimp Blues
TTITLE17=Blind Will Dukes - Steady Rollin' Man
TTITLE18=Blind Will Dukes - Me and the Devil
TTITLE19=Blind Will Dukes - Mean Hearted Woman
TTITLE20=Blind Will Dukes - Ramblin' Blues
TTITLE21=Blind Will Dukes - Hobo Blues
TTITLE22=Blind Will Dukes - Milk Cow Blues
TTITLE23=Blind Will Dukes - Mistreated So Long
TTITLE24=Blind Will Dukes - Sail on Little Woman
TTITLE25=Blind Will Dukes - Hoodoo Man
EXTD=
EXTT0=
EXTT1=
EXTT2=
EXTT3=
EXTT4=
EXTT5=
EXTT6=
EXTT7=
EXTT8=
EXTT9=
EXTT10=
EXTT11=
EXTT12=
EXTT13=
EXTT14=
EXTT15=
EXTT16=
EXTT17=
EXTT18=
EXTT19=
EXTT20=
EXTT21=
EXTT22=
EXTT23=
EXTT24=
EXTT25=
PLAYORDER=
